<?xml version="1.0" encoding="UTF-8"?>
<svg id="Layer_2" data-name="Layer 2" xmlns="http://www.w3.org/2000/svg" viewBox="0 0 500 500">
  <defs>
    <style>
      .cls-1 {
        fill: #af5f00;
      }

      .cls-2 {
        fill: #e8e1da;
      }
    </style>
  </defs>
  <g id="Layer_1-2" data-name="Layer 1">
    <g>
      <path class="cls-1" d="m424.16,475.48l-174.16,24.52-174.16-24.52c-26.64-3.75-47.57-24.68-51.32-51.32L0,250,24.52,75.84c3.75-26.64,24.68-47.57,51.32-51.32L250,0l174.16,24.52c26.64,3.75,47.57,24.68,51.32,51.32l24.52,174.16-24.52,174.16c-3.75,26.64-24.68,47.57-51.32,51.32Z"/>
      <g>
        <path class="cls-2" d="m81.39,211.62c.56-1.15,1.33-2.24,1.66-3.45,3.5-12.72,14.89-20.38,28-18.56,2.65.37,4.59-.1,6.5-2.01,24.66-24.72,49.36-49.4,74.08-74.05,1.75-1.75,2.61-3.46,2.24-6.09-1.59-11.37,3.41-21.63,12.78-26.73,9.79-5.33,21.83-4.22,30.35,3.53,7.7,7.01,14.91,14.58,22.27,21.96,11.09,11.12,22.1,22.31,33.19,33.42,7.05,7.07,10.49,15.42,8.67,25.38-2.14,11.73-14.04,20.78-26.41,20.48-7.28-.18-9.03.72-13.89,7.34,5.02,3.61,9.16,7.87,10.48,14.34,1.36,6.65-.93,12.04-4.92,17.05.18.34.26.69.48.88,36.89,32.18,73.81,64.33,110.69,96.52,9.92,8.66,19.91,17.23,29.52,26.23,7.25,6.79,11.24,15.67,11.53,25.49.51,17.34-10.6,34.86-29.58,39.47-.6.15-3.29-.94-1.89,1.74h-17.79c1.02-.37,2.04-.74,3.07-1.1-11.18-1.4-18.9-7.98-25.81-15.95-2.73-3.15-5.68-6.1-8.42-9.24-30.58-35.09-61.15-70.2-91.69-105.33-5.97-6.86-11.78-13.86-17.75-20.91-5.2,3.89-10.63,6.58-17.18,5.3-6.38-1.25-10.85-5.33-14.85-10.91-1.9,2.05-3.38,3.98-5.19,5.52-1.94,1.65-2.25,3.51-1.92,5.85,1.83,12.89-6.5,25.57-19.22,28.8-11.41,2.9-20.46-1.41-28.37-9.59-14.74-15.22-29.65-30.29-44.67-45.22-7.05-7.01-14.03-13.91-15.93-24.24,0-1.98,0-3.95,0-5.93Zm174.77-33.38c-18.65-18.49-37.38-37.06-56.05-55.57-24.27,24.29-48.92,48.97-73.41,73.48,18.66,18.62,37.32,37.24,55.88,55.76,24.34-24.37,49.06-49.12,73.58-73.67Zm82.23,126.44c-27.06-23.73-53.94-47.29-80.56-70.63-6.52,6.39-13.04,12.77-19.64,19.22,23.55,27.07,47.05,54.1,70.55,81.12,10.01-10.03,19.75-19.79,29.65-29.72Zm30.82,26.31c-11.12,10.87-21.77,21.3-32.47,31.69-1.42,1.38-1.39,2.41-.03,3.83,1.97,2.05,3.71,4.33,5.58,6.48,6.26,7.19,12.11,14.8,18.91,21.44,10.13,9.9,26.59,9.28,36.56-.64,10-9.94,10.8-25.95.77-36.12-9.36-9.5-19.72-18.01-29.34-26.68ZM219.38,90.38c-6.5.02-11.55,4.18-12.92,10.28-1.28,5.71,1.11,10.04,4.96,13.84,9.84,9.7,19.75,19.33,29.53,29.09,8.23,8.21,16.23,16.65,24.49,24.82,6.51,6.44,15.81,5.75,20.88-1.3,3.76-5.23,3.29-12.43-1.67-17.43-18.3-18.45-36.72-36.78-55.14-55.11-2.81-2.8-6.22-4.47-10.13-4.18Zm-124.9,126.33c-.21,3.06,2.18,6.35,5.22,9.39,15.2,15.21,30.35,30.46,45.56,45.65,3.64,3.64,7.23,7.39,11.25,10.56,4.11,3.25,10.3,2.79,14.78-.36,4.26-3,6.97-8.84,4.97-13.53-1.69-3.98-4.55-7.68-7.6-10.82-11.15-11.49-22.61-22.69-33.92-34.02-6.04-6.05-11.9-12.3-18.1-18.18-4.25-4.04-9.54-4.41-14.72-2.09-4.94,2.21-7.26,6.45-7.42,13.4Zm164.76-6.28c-.59-3.22-2.49-5.41-5.37-6.16-3.39-.89-5.71.84-7.86,3-11.77,11.83-23.55,23.65-35.27,35.53-3.35,3.39-3.57,6.79-.93,9.6,2.77,2.94,6.89,2.98,10.22-.32,12.09-11.98,24.11-24.02,36.04-36.16,1.43-1.46,2.13-3.64,3.17-5.49Zm66.71,143.57c10.75-10.77,21.38-21.43,32.14-32.22-3.03-2.62-6.21-5.37-9.5-8.22-10.11,10.14-19.82,19.83-29.43,29.6-.56.57-.93,2.23-.56,2.69,2.35,2.86,4.95,5.53,7.35,8.15Z"/>
        <path class="cls-2" d="m81.39,394.14c.29.42.58.83,1.24,1.77,1.41-11.16,7.89-18.22,16.7-23.71-3.87-5.42-5.84-11.25-4.4-17.72,2.59-11.65,11.03-18.49,23.27-18.92,5.48-.19,10.97-.07,16.46-.07,30.84,0,61.68-.02,92.52,0,11.34,0,20.36,5.61,23.91,14.76,3.02,7.8,1.91,15.04-3.12,21.76,2.24,1.73,4.49,3.28,6.53,5.07,9.08,7.96,11.83,18.34,11.32,29.95-.16,3.63-2.57,5.63-5.2,7.52H85.34c.17-2.8-1.67-3.6-3.95-3.95,0-5.49,0-10.98,0-16.47Zm13.33,7.05h157.86c.5-8.45-6.14-16.96-14.98-18.84-3.5-.74-7.19-.84-10.79-.84-35.02-.04-70.04,0-105.06.03-2.74,0-5.5-.05-8.23.13-10.87.71-19.44,9.55-18.8,19.51Zm78.93-52.52c-18.55,0-37.11-.02-55.66.01-6.31.01-10.48,4.31-10.23,10.37.24,5.64,4.51,9.41,10.9,9.42,34.47.03,68.94.01,103.41,0,2.52,0,5.05,0,7.57-.16,3.05-.2,5.84-1.12,7.7-3.78,2.26-3.23,2.73-6.65.86-10.22-1.87-3.58-4.68-5.66-8.9-5.66-18.55.03-37.11.01-55.66.01Z"/>
        <path class="cls-2" d="m207.91,149.74c-1.02,1.92-1.43,3.39-2.37,4.34-9.41,9.53-18.79,19.08-28.43,28.38-3.38,3.26-8.05,2.08-9.82-1.97-1.02-2.33-.66-4.57,1.14-6.39,9.34-9.45,18.68-18.89,28.1-28.25,2.01-1.99,4.72-2.9,7.19-1.12,1.7,1.22,2.8,3.29,4.18,5Z"/>
        <path class="cls-2" d="m160.48,197.02c-.04,3.29-2.75,5.9-6.16,5.94-3.33.04-6.37-2.99-6.28-6.27.09-3.4,3.08-6.27,6.4-6.15,3.43.12,6.08,2.97,6.04,6.48Z"/>
      </g>
    </g>
  </g>
</svg>