<?xml version="1.0" encoding="UTF-8"?>
<svg id="Layer_2" data-name="Layer 2" xmlns="http://www.w3.org/2000/svg" viewBox="0 0 500 500">
  <defs>
    <style>
      .cls-1 {
        fill: #41007a;
      }

      .cls-2 {
        fill: #dce2e5;
      }
    </style>
  </defs>
  <g id="Layer_1-2" data-name="Layer 1">
    <g>
      <path class="cls-2" d="m424.16,475.48l-174.16,24.52-174.16-24.52c-26.64-3.75-47.57-24.68-51.32-51.32L0,250,24.52,75.84c3.75-26.64,24.68-47.57,51.32-51.32L250,0l174.16,24.52c26.64,3.75,47.57,24.68,51.32,51.32l24.52,174.16-24.52,174.16c-3.75,26.64-24.68,47.57-51.32,51.32Z"/>
      <g>
        <path class="cls-1" d="m468.1,254.6c-2.33,6.47-7.51,7.52-13.56,7.51-33.1-.08-66.2-.03-99.3-.02-21.08,0-42.15.05-63.23,0-3.1,0-6.22-.22-9.28-.72-4.08-.66-6.1-3.61-6.26-7.47-.16-3.88,1.73-6.88,5.68-7.93,2.01-.54,4.17-.69,6.27-.69,9.76-.03,19.52.05,29.27.07,1.1,0,2.2-.17,3.3-.25-.81-26.5-29.23-62.74-69.74-62.58-35.23.13-72.64,32.36-70.76,62.61,1.03.08,2.11.24,3.19.24,10.32,0,20.66-.26,30.97.09,2.82.1,6.3,1.27,8.23,3.2,4.43,4.43,1.97,11.37-4.17,12.72-2.6.57-5.33.7-8,.7-54.32.04-108.63.04-162.95,0-2.39,0-4.82-.17-7.17-.58-3.98-.69-6.18-3.19-6.41-7.26-.24-4.11,1.83-7.07,5.92-8.13,2.03-.52,4.18-.72,6.28-.76,6.65-.1,13.3-.16,19.94,0,2.83.06,4.01-.55,3.91-3.75-.21-6.49.04-13.01.21-19.51.19-7.53,2.64-10.15,10.2-10.55,4.65-.24,9.34-.16,14,.01,2.15.08,3.19-.56,4.05-2.62,4.42-10.52,9.12-20.93,13.5-31.47.46-1.1-.07-3.23-.93-4.16-3.55-3.84-7.51-7.29-11.12-11.07-4.51-4.73-4.46-9.07.16-13.69,14.79-14.81,29.6-29.61,44.5-44.32,6.11-6.03,9.81-5.99,15.93-.1,3.26,3.14,6.22,6.6,9.63,9.56,1.01.88,3.33,1.14,4.64.63,10.37-4.04,20.68-8.25,30.9-12.64,1.25-.54,2.64-2.38,2.74-3.71.39-5.21.14-10.46.4-15.68.26-5.34,2.32-7.63,7.51-8.73,1.78-.38,3.64-.57,5.46-.58,19.38-.04,38.76-.04,58.14,0,1.82,0,3.66.26,5.45.62,4.27.87,6.72,3.52,6.93,7.9.25,5.22.46,10.46.35,15.68-.06,2.93,1.04,3.94,3.8,4.96,9.52,3.49,18.97,7.22,28.17,11.48,3.51,1.62,5.49,1.37,7.92-1.41,2.79-3.19,5.92-6.08,9.02-8.97,4.78-4.47,9.2-4.71,13.76-.19,15.18,15.02,30.28,30.13,45.21,45.4,5.34,5.46,5.05,9.12-.21,14.6-3.91,4.08-7.95,8.04-11.46,11.59,4.66,11.84,9.17,23.49,13.91,35.05.42,1.02,2.26,1.99,3.49,2.05,4.23.2,8.48-.18,12.72-.04,9.71.31,12.26,3.05,12.15,12.67-.07,5.8.03,11.6-.22,17.39-.13,2.86.91,3.71,3.63,3.65,6.22-.13,12.45.08,18.67-.07,6.05-.15,11.56.59,14.67,6.73v2.55ZM117.58,155.82c.17.4.22.72.4.91,3.13,3.26,6.3,6.49,9.42,9.77,5.01,5.26,5.56,7.15,1.92,13.45-7.55,13.06-13.31,26.76-16.88,41.43-1.14,4.67-4.12,6.78-8.93,6.92-4.52.13-9.05.13-13.58.04-2.15-.04-3.11.71-3.05,2.93.09,3.68.13,7.36.02,11.03-.07,2.22.82,2.98,2.99,2.98,23.48-.03,46.96.04,70.44-.11,1.07,0,2.94-1.69,3.07-2.76,1.61-13.67,7.09-25.77,14.47-37.18,33.68-52.08,110.74-52.76,145.2-1.2,7.46,11.17,12.46,23.39,14.49,36.75.31,2.06,0,4.59,3.56,4.59,23.62-.05,47.25.06,70.87,0,.94,0,2.65-1.09,2.68-1.73.22-5.01.12-10.04.12-15.26-5.68,0-10.61.04-15.54,0-6.94-.06-8.97-1.64-10.94-8.2-1.91-6.35-3.45-12.85-5.94-18.97-3.03-7.43-6.85-14.53-10.38-21.75-3.01-6.15-2.83-7.94,1.82-12.78,2.45-2.55,4.9-5.13,7.6-7.39,2.62-2.19,3.07-3.69.25-6.34-7.1-6.69-13.89-13.72-20.72-20.68-3.94-4.02-7.74-8.17-12.51-13.23-3.86,4.28-6.91,7.99-10.3,11.36-5.54,5.51-7.96,5.91-14.52,1.9-12.4-7.57-25.53-13.23-39.66-16.68-6.62-1.62-7.82-3.41-7.9-10.1-.06-5.04-.01-10.09-.01-15.55-16.42,0-32.51-.04-48.6.12-.74,0-2.04,1.74-2.09,2.72-.19,3.81.12,7.63.06,11.45-.12,7.67-1.56,9.73-8.98,11.67-13.62,3.55-26.46,8.86-38.61,15.98-6.8,3.99-8.87,3.63-14.6-1.76-3.46-3.25-6.78-6.65-10.26-10.08-12.01,12.13-23.62,23.87-35.41,35.78Z"/>
        <path class="cls-1" d="m212.52,338.3c0,2.35,0,4.7,0,7.05,0,23.19.03,46.39-.03,69.58,0,2.37-.17,4.85-.86,7.09-1.14,3.69-4.22,5.43-7.86,5.27-3.6-.16-6.49-2-7.44-5.84-.37-1.5-.7-3.05-.7-4.58,0-37.05.03-74.1.1-111.16,0-3.64.75-7.14,4.16-9.22,4.14-2.51,8.69-1.11,11.45,3.66,7.49,12.96,14.92,25.96,22.25,39.01,7.17,12.76,14.2,25.6,21.61,38.97,1.25-1.77,2.5-3.22,3.42-4.85,10.77-19.37,21.47-38.79,32.25-58.16,2.75-4.94,5.59-9.82,8.62-14.59,2.81-4.44,6.24-5.96,9.83-4.85,3.97,1.23,5.99,4.43,5.99,9.59.04,37.05.07,74.11.1,111.16,0,1.27.07,2.58-.18,3.81-.72,3.47-2.79,5.85-6.29,6.68-3.66.87-7.01.01-8.67-3.52-1.15-2.46-1.84-5.37-1.85-8.08-.14-24.32-.08-48.65-.08-72.98,0-1.48,0-2.95,0-4.43-.25-.04-.49-.08-.74-.13-6.25,11.15-12.47,22.33-18.76,33.46-4.8,8.48-9.68,16.91-14.54,25.36-.56.98-1.19,1.93-1.86,2.83-4.16,5.53-10.22,5.56-13.9-.3-4.88-7.77-9.41-15.77-13.95-23.74-7.05-12.38-13.98-24.83-20.97-37.25l-1.1.16Z"/>
        <path class="cls-1" d="m83.85,361.55c0-10.33-.17-20.66.04-30.98.42-20.76,13.57-35.09,34.16-36.65,8.13-.61,16.43-.36,24.54.54,15.94,1.76,28.86,16.52,29.23,32.52.13,5.59-2.58,9.27-7.23,9.81-4.57.53-7.78-2.17-9.01-7.57-.53-2.34-.91-4.72-1.59-7.02-1.97-6.55-8.33-11.44-15.17-11.55-6.79-.11-13.58-.13-20.37,0-8.92.18-16.16,6.66-17.18,15.63-.56,4.9-.6,9.88-.62,14.82-.05,16.69-.11,33.39.1,50.08.14,11.14,3.99,18.27,12.63,19.49,9.49,1.35,19.42,1.1,28.97-.03,7.31-.86,11.52-6.63,12.63-14.14.23-1.54.45-3.08.84-4.59.99-3.82,4.4-6.44,8.02-6.27,3.85.18,7.34,2.78,7.45,6.78.11,4.14-.42,8.51-1.71,12.44-4.57,13.99-17.61,23.42-32.32,23.75-6.36.14-12.73.16-19.09,0-17.62-.44-32.57-14.19-33.68-31.88-.73-11.69-.14-23.46-.14-35.2h-.52Z"/>
        <path class="cls-1" d="m377.56,289.9c12.99.26,23.75,5.03,31.73,15.34,4.6,5.94,2.48,12.62-4.2,14.34-3.95,1.02-6.52-1.09-8.79-3.75-3.88-4.53-8.35-7.8-14.46-8.86-12.55-2.18-24.49,5.85-26.75,18.29-2.28,12.52,6.31,24.76,18.75,26.96,6.37,1.13,12.98,1.76,18.97,3.98,16.94,6.29,26.73,23.67,24.26,41.71-2.42,17.72-16.57,31.64-33.93,34.27-16.31,2.48-32.47-6.8-39.27-18.88-3.56-6.33-1.85-11.89,4.1-13.63,3-.88,5.57-.4,7.59,2.16,1.4,1.78,2.8,3.56,4.25,5.29,7.05,8.41,17.44,10.81,27.56,6.38,9.14-4,14.4-13.4,13.11-23.41-1.4-10.79-9-18.65-19.71-20.28-4.46-.68-9.05-.8-13.41-1.88-17.62-4.35-29.49-20.53-29.2-39.37.28-17.85,13.19-33.67,30.63-37.4,2.88-.62,5.85-.85,8.78-1.25Z"/>
        <path class="cls-1" d="m250.84,262.06c-4.39.08-8.42-3.89-8.44-8.31-.01-4.51,3.76-8.26,8.38-8.32,4.35-.05,8.23,3.98,8.2,8.52-.03,4.32-3.75,8.03-8.14,8.11Z"/>
      </g>
    </g>
  </g>
</svg>