<?xml version="1.0" encoding="UTF-8"?>
<svg id="Layer_2" data-name="Layer 2" xmlns="http://www.w3.org/2000/svg" viewBox="0 0 500 500">
  <defs>
    <style>
      .cls-1 {
        fill: #dce2e5;
      }

      .cls-2 {
        fill: #260047;
      }
    </style>
  </defs>
  <g id="Layer_1-2" data-name="Layer 1">
    <g>
      <path class="cls-2" d="m424.16,475.48l-174.16,24.52-174.16-24.52c-26.64-3.75-47.57-24.68-51.32-51.32L0,250,24.52,75.84c3.75-26.64,24.68-47.57,51.32-51.32L250,0l174.16,24.52c26.64,3.75,47.57,24.68,51.32,51.32l24.52,174.16-24.52,174.16c-3.75,26.64-24.68,47.57-51.32,51.32Z"/>
      <g>
        <path class="cls-1" d="m92.97,373.31c.3.36.59.73,1.12,1.37,1.83-12.89,9.58-21.09,20.37-27.14-4.4-7.26-5.94-15.01-4.19-23.33,1.55-7.39,5.03-13.68,10.77-18.64,11.6-10.03,27.2-11.4,39.19-3.41,7.49,4.99,12.41,11.81,14.7,20.58,2.29,8.75.51,16.85-3.57,24.47,3.98,3.01,7.76,5.87,10.99,8.31,3.94-5.78,7.27-12.31,12.14-17.34,4.91-5.07,11.34-8.67,17.3-13.05-7.37-11.41-9.89-24.47-5.86-38.45,2.9-10.05,9.13-17.82,17.57-23.83,16.84-12,41.47-10.03,56.74,4.47,16.12,15.3,18.53,38.14,5.8,58.69,14.39,5.46,23.38,16.25,29.07,30.06,4.03-3,7.9-5.89,11.8-8.79-9.91-16.97-2.56-34.5,8.41-43.05,12.2-9.51,28.91-9.56,41.14.18,12.38,9.86,15.32,26.51,7.52,43.05,2.4,1.63,4.93,3.11,7.2,4.93,9.31,7.46,13.81,17.33,14.08,29.16.13,5.59-.11,11.19.08,16.77.12,3.62-2.25,5.64-4.32,7.94h-126.28c-.64-.73-1.23-1.52-1.94-2.17-2.98-2.7-2.53-7.13,1.13-8.81,1.69-.78,3.7-1.09,5.59-1.17,4.06-.17,8.13-.05,12.19-.05,4.55,0,9.09,0,13.88,0,.07-1.3.17-2.28.17-3.27,0-6.29-.03-12.58,0-18.87.07-16.09-11.35-31.26-26.9-35.49-1.2-.33-2.93-.13-3.97.53-17.08,10.92-34.09,10.83-51.24.16-1.28-.8-3.41-1.19-4.8-.73-14.32,4.75-23.6,14.45-25.68,29.49-1.24,8.98-.54,18.22-.7,27.35,0,.17.18.34.39.7.88.04,1.87.12,2.86.12,7.62.01,15.24-.05,22.86.05,1.79.02,3.71.22,5.35.88,4.03,1.62,4.67,6.5,1.41,9.35-.67.58-1.23,1.28-1.84,1.93h-126.89c.13-2.57-1.54-3.34-3.66-3.66,0-9.76,0-19.52,0-29.28Zm189.24-73.37c-.34-19.64-14.86-33.08-35.39-32.78-17.12.26-31.03,15.5-30.71,33.63.33,18.43,15.29,32.53,34.18,32.21,18.09-.31,32.23-14.96,31.91-33.07Zm110.76,93.96c0-5.26.44-10.36-.09-15.36-.97-9.19-5.65-16.12-14.1-20.28-2.17-1.07-4.06-.95-6.28.35-10.6,6.19-21.67,7.09-32.44.93-4.5-2.57-7.93-1.88-11.32.84-2.72,2.19-5.37,4.76-7.22,7.68-5.03,7.93-3.7,16.93-3.96,25.84h75.41Zm-211.98.03c-.33-6-.1-11.74-1.06-17.28-1.51-8.7-6.28-15.34-14.82-18.61-1.31-.5-3.35-.46-4.52.23-11.95,7.01-23.81,6.94-35.83.21-1.13-.63-2.96-.7-4.23-.29-6.03,1.97-10,6.32-12.91,11.79-4.08,7.65-1.85,15.85-2.49,23.95h75.86Zm174.53-42.38c11.97-.02,21.14-9.29,21.11-21.35-.03-11.35-9.75-21.12-20.99-21.07-12.14.04-21.25,8.96-21.25,20.81,0,12.41,9.02,21.64,21.13,21.62Zm-191.72-20.98c-.09-11.94-9.47-21.47-21.11-21.43-11.55.04-21.11,9.69-21.02,21.22.1,11.87,9.52,21.22,21.34,21.17,11.62-.05,20.87-9.37,20.78-20.95Z"/>
        <path class="cls-1" d="m92.97,109.15c.35-.6.89-1.17,1.02-1.82,1.57-7.59,8.54-12.95,17.51-13.41.71-.04,1.42-.03,2.13-.03,89.98,0,179.96-.03,269.94.09,3.96,0,8.25.62,11.8,2.24,7.22,3.29,9.92,9.8,9.93,17.48.02,24.91.01,49.82,0,74.73,0,11.91-7.56,19.65-19.48,19.94-2.74.07-5.51.19-8.23-.05-2.7-.24-3.22.86-3.19,3.3.1,6.81-.1,13.62-.1,20.43,0,3.08-.82,5.63-3.79,7.04-2.87,1.37-5.11-.17-7.26-1.75-11.49-8.39-23.02-16.73-34.38-25.28-3.69-2.78-7.49-3.92-12.11-3.83-13.11.26-26.23.18-39.34.1-2.38-.01-3.92.71-5.28,2.71-5.02,7.39-10.22,14.67-15.35,21.99-.7,1-1.37,2.02-2.11,2.99-3.6,4.72-7.62,4.7-11.1-.14-5.27-7.34-10.81-14.54-15.55-22.22-2.68-4.34-5.73-5.56-10.58-5.43-12.8.33-25.62.15-38.43.12-2.62,0-4.81.64-7.02,2.26-11.78,8.67-23.69,17.17-35.57,25.71-1.15.83-2.32,1.66-3.58,2.3-4.46,2.29-8.61-.02-8.78-5.06-.25-7.52-.35-15.04-.28-22.56.02-2.1-.62-2.64-2.54-2.63-3.76.02-7.55.15-11.27-.26-8.14-.89-13.71-5.13-16.01-13.23-.22-.76-.67-1.45-1.02-2.17,0-27.86,0-55.72,0-83.58Zm43.04,113c11.22-8.22,21.54-15.94,32.08-23.37,2.1-1.48,4.99-2.55,7.53-2.58,16.46-.23,32.94-.07,49.4-.17,4.07-.03,6.88,1.53,9.08,4.93,4.3,6.65,8.81,13.17,13.25,19.73.54.79,1.18,1.52,2.01,2.58,5.2-7.59,10.23-14.72,15.03-22.01,2.27-3.45,5.09-5.23,9.29-5.2,16.26.09,32.53-.08,48.79.19,2.72.05,5.73,1.32,8.06,2.86,5.85,3.85,11.37,8.19,17.04,12.32,4.66,3.39,9.35,6.75,14.54,10.5.1-1.71.22-2.86.23-4.02.05-5.08-.08-10.17.13-15.24.18-4.37,1.86-5.98,6.14-6.41,1.41-.14,2.84-.18,4.26-.18,4.37.02,8.74.18,13.11.11,5.28-.09,7.15-2.04,7.15-7.26,0-24.91,0-49.81,0-74.72,0-6.27-1.89-8.11-8.22-8.11-90.89,0-181.77,0-272.66,0-5.66,0-7.06,1.38-7.06,6.96,0,25.31,0,50.63,0,75.94,0,5.52,1.41,7.03,6.98,7.2,2.64.08,5.28-.12,7.93-.11,3.35.01,6.71-.03,10.05.21,3.55.25,5.4,2.08,5.59,5.62.25,4.77.21,9.55.29,14.32.03,1.69,0,3.38,0,5.91Z"/>
        <path class="cls-1" d="m247.92,406.25c-.87-.69-1.79-1.34-2.61-2.09-2.47-2.28-2.68-5.52-.56-7.89,2.08-2.34,5.95-2.58,8.22-.5,2.44,2.23,2.55,5.69.33,8.15-.65.71-1.15,1.55-1.72,2.33h-3.66Z"/>
        <path class="cls-1" d="m288.06,128.02c25.11,0,50.22,0,75.33,0,1.42,0,2.85-.04,4.27.07,3.18.25,5.55,2.57,5.83,5.63.25,2.67-1.59,5.22-4.55,6.03-1.25.34-2.6.48-3.9.48-51.44.02-102.89.02-154.33,0-1.2,0-2.45-.09-3.6-.42-3.14-.91-4.63-3.2-4.37-6.41.22-2.68,2.18-4.75,5.12-5.23,1.09-.18,2.23-.11,3.35-.11,25.62,0,51.24,0,76.86,0v-.04Z"/>
        <path class="cls-1" d="m210.2,162.17c25.4,0,50.8,0,76.2.02,1.61,0,3.27.05,4.82.43,2.67.64,4.09,2.55,4.26,5.27.17,2.81-1.36,4.71-3.85,5.58-1.78.62-3.77.92-5.66.93-50.8.05-101.61.04-152.41.02-1.21,0-2.45-.08-3.62-.34-3.25-.74-5.41-3.46-5.08-6.25.41-3.51,2.67-5.57,6.4-5.58,10.87-.04,21.74-.02,32.62-.02,15.44,0,30.89,0,46.33,0,0-.02,0-.04,0-.06Z"/>
        <path class="cls-1" d="m153.8,128.06c7.11,0,14.21-.03,21.32.01,4.45.02,6.92,2.12,7.03,5.81.11,3.72-2.34,6.28-6.65,6.31-14.82.1-29.64.09-44.46.01-3.32-.02-6.25-2.96-6.29-5.88-.05-3.42,2.71-6.19,6.52-6.23,7.51-.09,15.02-.03,22.54-.03,0,0,0,0,0-.01Z"/>
        <path class="cls-1" d="m344.69,162.21c7.41,0,14.82-.05,22.22.02,3.95.04,6.36,2.23,6.59,5.7.2,2.97-1.94,5.38-5.55,6.17-.98.21-2.01.32-3.01.32-13.5.02-26.99.03-40.49-.02-1.4,0-2.85-.23-4.19-.63-2.86-.86-4.45-3.59-4.07-6.67.36-2.87,2.51-4.82,5.66-4.84,7.61-.06,15.22-.02,22.83-.02,0,0,0-.02,0-.03Z"/>
      </g>
    </g>
  </g>
</svg>