<?xml version="1.0" encoding="UTF-8"?>
<svg id="Layer_2" data-name="Layer 2" xmlns="http://www.w3.org/2000/svg" viewBox="0 0 500 500">
  <defs>
    <style>
      .cls-1 {
        fill: #dce2e5;
      }

      .cls-2 {
        fill: #67af00;
      }
    </style>
  </defs>
  <g id="Layer_1-2" data-name="Layer 1">
    <g>
      <path class="cls-2" d="m424.16,475.48l-174.16,24.52-174.16-24.52c-26.64-3.75-47.57-24.68-51.32-51.32L0,250,24.52,75.84c3.75-26.64,24.68-47.57,51.32-51.32L250,0l174.16,24.52c26.64,3.75,47.57,24.68,51.32,51.32l24.52,174.16-24.52,174.16c-3.75,26.64-24.68,47.57-51.32,51.32Z"/>
      <g>
        <path class="cls-1" d="m129.85,228.67c-.34-7.53-1.59-14.39-.69-20.97.92-6.72,3.98-13.15,6-19.74.67-2.18,1.54-4.47,1.46-6.68-.4-11.34,3.91-19.89,13.97-25.51,1.19-.67,1.95-2.71,2.27-4.24,3.1-14.72,13.43-24.2,28.33-25.81.37-.04.74-.07,1.11-.09,7.04-.39,12.66-2.54,18.26-6.96,13.65-10.79,32.18-12.17,47.81-3.38,2.03,1.14,3.29,1.26,5.23-.2,11.18-8.45,24.78-6.89,34.45,3.42,1.57,1.67,4.37,2.97,6.66,3.07,22.29,1.02,42.92,17.28,48.63,38.94.88,3.33,2.38,5.25,5.62,6.57,12.91,5.26,18.67,17.18,15.39,30.82-.34,1.4-.24,3.23.39,4.49,3.56,7.18,5.39,14.65,4.14,22.64-.42,2.71.42,3.64,3.02,4.24,7.16,1.65,10.22,5.15,11.09,12.54.3,2.54,1.32,3.46,3.78,3.33,2.72-.14,5.46-.13,8.18-.04,8.25.28,12.25,3.47,14,11.58,1.87,8.71,3.47,17.48,5.15,26.22,7.15,37.2,14.17,74.42,21.49,111.58,1.76,8.94.46,16.42-7,22.26-3.71,2.9-7.99,3.9-12.53,3.9-42.66,0-85.31-.04-127.97,0-1.37,0-3.23.28-4.02,1.17-5.27,5.89-12.22,8.36-19.61,9.67-12.84,2.28-25.73,2.41-38.17-2.01-4.19-1.49-7.83-4.53-11.76-6.8-1.43-.82-2.97-2.07-4.46-2.08-35.09-.06-70.18.02-105.27.08-7.69.01-15.38.15-23.06-.04-13.5-.33-21.4-9.7-19.58-23.06.47-3.43,1.09-6.85,1.75-10.25,8.13-42.43,16.28-84.85,24.44-127.27.4-2.06.85-4.13,1.51-6.12,1.68-5.05,5.2-8.14,10.5-8.74,3.68-.42,7.43-.18,11.12-.54,1.08-.11,2.85-1.2,2.94-2.01,1.05-8.88,5.9-13.58,14.79-14.2.36-.03.72-.19,1.06-.32.1-.04.15-.19-.39.53Zm263.9,151.45c-.25-2.22-.3-3.08-.45-3.92-2.19-12.43-4.5-24.84-6.58-37.29-5.23-31.25-10.35-62.52-15.55-93.78-.66-3.94-3.22-5.62-6.86-4.06-1.47.63-2.75,2.43-3.46,4-2.49,5.51-4.02,11.57-7.17,16.64-3.86,6.19-8.99,11.58-13.5,17.25,1.56,4.19,3.69,8.83,4.99,13.69,1.85,6.85,0,13.06-5.05,18.07-7.82,7.77-19.09,7.83-27.2-.34-5.32-5.35-11.41-8.94-18.37-11.52-4.16-1.54-8.25-3.39-12.17-5.48-5.36-2.85-10.14-6.83-12.28-12.5-1.65-4.37-4.33-5.23-8.27-6.2-5.13-1.26-9.32-1.13-13.06,2.96-1.04,1.14-2.68,1.77-4.12,2.48-17.97,8.88-39.22,2.78-50.52-14.55-1.16-1.78-2.07-3-4.63-2.52-20.03,3.71-36.43-2.9-49.15-18.39-2.95-3.59-5.58-4.89-9.9-3.97-2.05.44-3.23.92-3.61,3.32-1.82,11.62-3.9,23.19-5.82,34.79-4.63,28.1-9.22,56.21-13.83,84.31-.87,5.32-1.81,10.62-2.9,16.98,46.53-15.72,92.39-15.42,138.12-.37.27-1.27.41-1.63.41-1.99-.01-23.93-.04-47.86-.04-71.78,0-2.11.03-4.23.29-6.31.45-3.54,3.03-5.7,6.31-5.52,3.06.17,5.3,2.47,5.59,5.85.15,1.73.21,3.47.22,5.2.02,22.2.02,44.39.03,66.59,0,2.44,0,4.87,0,8.06,46.17-14.64,92.07-15.84,138.52.32Zm-61.62-214.25c-3.13-16.73-19.01-30.54-36.79-31.99-.23.49-.57,1.02-.74,1.59-.98,3.28-2.44,6.23-6.46,5.98-3.95-.24-5.29-3.14-5.75-6.64-.08-.61-.34-1.19-.47-1.8-1.58-6.97-6.67-11.17-13.37-11.04-6.84.14-11.73,4.41-13.03,11.37-.2,1.1-.33,2.22-.64,3.28-.91,3.12-3.05,4.87-6.3,4.69-3.34-.19-5.2-2.4-5.4-5.57-.14-2.18.69-4.4.66-6.6-.01-1.16-.62-2.88-1.5-3.36-6.66-3.65-13.83-4.64-21.23-2.95-11.84,2.72-19.63,9.94-23.49,21.5-1.43,4.28-4.8,6.38-8.06,5.41-3.56-1.06-5.03-4.05-4.03-8.63.6-2.76-.27-3.56-3.06-3.2-6.81.89-12.16,3.79-15.6,9.98-2.71,4.86-2.86,4.87,2.3,6.48,5.36,1.67,9.94,4.49,13.34,8.98,2.2,2.9,1.95,5.84-.38,8.02-2.44,2.28-5.14,2.33-8.01.04-1.06-.85-1.96-1.89-2.98-2.8-4.02-3.58-10.77-4.14-15.66-1.33-5.06,2.91-7.57,8.65-6.54,14.23.81,4.39,3.78,7.07,6.84,9.84,2.74,2.48,2.98,5.64.9,8.28-2.02,2.58-5.25,3-8.29.95-1.31-.88-2.46-1.99-4.07-3.32-.61,1.36-1.21,2.39-1.55,3.5-8.3,27.16,13.24,53.36,41.57,50.74,3.12-.29,4.03-1.33,3.78-4.36-.2-2.37-1.38-3.01-3.38-3.62-9.34-2.87-15.25-8.96-16.69-18.84-.65-4.49,1.36-7.36,5.24-8.01,3.5-.59,5.69,1.2,6.83,5.64.22.84.36,1.69.54,2.54.73,3.33,2.94,5.52,5.96,6.58,1,.35,3.01-.5,3.73-1.44,1.4-1.83,2.01-4.25,3.32-6.17,1.75-2.59,4.22-3.97,7.32-2.19,2.9,1.66,4.27,4.07,2.91,7.48-.69,1.72-1.31,3.47-1.98,5.21-4.77,12.49.61,27.18,12.31,33.61,10.55,5.79,23.14,4.02,32.24-4.58,2.22-2.1,4.48-4.31,7.8-3.15,10.74,3.75,21.54,3.96,32.57,1.48,4.29-.96,7.13,1.04,7.93,4.66.74,3.31-1.09,5.82-5.41,7.14-2.68.82-5.42,1.4-8.8,2.26,1.33,1.61,2.03,3.03,3.17,3.74,4.3,2.64,8.52,5.58,13.17,7.43,8.84,3.51,17.34,7.33,23.9,14.5.58.63,1.35,1.09,2.06,1.58,2.61,1.79,5.17,1.28,7.66-.27,2.51-1.57,3.51-3.96,2.72-6.71-.99-3.43-2.49-6.71-3.61-10.11-.64-1.94-1.6-2.02-3.36-1.44-2.93.97-5.93,1.8-8.97,2.33-3.71.65-6.21-1.03-7.11-4.36-.8-2.93.66-5.61,4.04-7,1.94-.8,4.01-1.26,6-1.94,7.84-2.67,14.6-6.86,20.12-14.06-1.46.07-2.18.04-2.87.14-11.4,1.65-21.92-.26-31.29-7.37-.95-.72-2.68-.58-4.05-.58-3.55,0-7.21.75-10.63.14-6.7-1.21-11.71-5.21-14.71-11.4-1.4-2.9-.84-5.66,1.89-7.56,2.68-1.86,5.3-1.81,7.6.84,1.14,1.31,2.34,2.57,3.61,3.75,2.72,2.52,7.29,3.35,10.39,1.72,3.42-1.8,5.55-4.56,5.25-8.66-.13-1.72-.43-3.43-.68-5.14-.6-4.18.8-6.78,4.1-7.61,3.33-.84,5.95.69,7.45,4.51,2.46,6.25,2.14,12.4-1.15,18.26-1.14,2.04-.73,3.04,1.25,4.03,6.5,3.25,13.28,3.92,20.24,2.11,14.75-3.84,24.12-19.45,18.81-34.85-1.92.81-3.82,1.64-5.74,2.43-3.09,1.26-5.31,0-6.95-2.57-1.78-2.79-.97-5.2,1.38-7.23,1.12-.97,2.33-1.85,3.5-2.77,5.38-4.21,6.95-11.08,3.87-16.96-3.03-5.78-9.8-8.52-16.17-6.45-1.52.49-2.96,1.26-4.44,1.88-3.91,1.64-6.73.77-8.49-2.6-1.46-2.79-.51-5.67,2.84-7.86,2.15-1.41,4.5-2.51,6.72-3.73Zm54.04,92.32c-.06.23-.19.48-.16.69,4.32,26.14,8.64,52.28,12.99,78.41,2.22,13.31,4.59,26.59,6.7,39.92,1.29,8.16-4.12,14.72-11.84,14.56-2.07-.04-4.17-.57-6.17-1.19-28.08-8.7-56.75-11.35-85.95-8.43-5.62.56-11.2,1.54-17.29,2.39.61,6.76,1.41,13.14,1.65,19.54.12,3.31,1.17,4.05,4.39,4.03,41.16-.13,82.32-.15,123.48-.08,9.2.02,11.15-1.95,9.81-10.92-.05-.37-.14-.73-.21-1.09-8.4-43.12-16.79-86.24-25.22-129.36-1.88-9.6-1.95-9.58-11.83-8.64-.12.01-.22.1-.34.15Zm-274-.38c-2.92,0-5.29.22-7.59-.06-2.63-.32-3.28.75-3.74,3.18-3.47,18.49-7.14,36.95-10.72,55.42-5.11,26.37-10.34,52.73-15.24,79.14-2.07,11.16-.68,12.46,10.79,12.46,37.46-.02,74.91-.04,112.37-.06,3.6,0,7.2.1,10.78-.16,1-.07,2.68-1.16,2.77-1.93.74-6.27,1.25-12.58,1.6-18.89.05-.8-1.13-2.33-1.84-2.4-13.18-1.26-26.36-3.05-39.57-3.31-21.2-.42-41.98,3.14-62.15,9.7-10.88,3.54-18.97-5.49-17.3-15.3,4.84-28.45,9.47-56.93,14.23-85.39,1.77-10.61,3.67-21.19,5.62-32.41Zm113.55,129.48c-.72,9.05-1.49,17.05-1.84,25.07-.06,1.35,1.51,3.66,2.75,4.02,5.77,1.67,11.64,3.39,17.59,4.01,9.05.93,18.05.08,26.62-3.51,2.63-1.1,3.85-2.69,3.47-5.7-.53-4.17-.7-8.38-1.02-12.58-.26-3.52-.52-7.04-.84-11.4-5.53,1.8-10.74,3.01-15.51,5.19-5.5,2.51-10.44,2.39-15.91-.04-4.79-2.12-9.99-3.34-15.32-5.06Z"/>
        <path class="cls-1" d="m378.25,170.9c-3.35-1.01-5.08-2.76-5.92-5.46-.85-2.75.15-5.19,2.57-6.29,6.62-2.98,13.35-5.73,20.15-8.27,2.8-1.05,5.18.88,5.8,3.27.53,2.06.24,5.92-.99,6.59-6.99,3.78-14.37,6.85-21.62,10.16Z"/>
        <path class="cls-1" d="m202.52,88.8c-1.88,1.9-3.23,4.06-5.17,5.03-2.3,1.15-5.14.7-6.36-2.05-3.02-6.76-5.93-13.58-8.56-20.5-1.03-2.72.84-4.73,3.19-6,2.53-1.37,5.47-.98,6.65,1.3,3.61,6.99,6.64,14.27,10.26,22.22Z"/>
        <path class="cls-1" d="m102.52,150.68c.52.14,1.49.32,2.39.68,5.61,2.28,11.26,4.5,16.8,6.94,3.74,1.65,5.09,4.68,3.84,7.72-1.36,3.28-4.48,4.67-8.34,3.21-5.66-2.14-11.26-4.49-16.78-6.97-2.8-1.26-4.6-3.56-3.85-6.85.63-2.76,2.41-4.56,5.94-4.72Z"/>
        <path class="cls-1" d="m308.51,64.83c4.9-.08,8.08,3.35,6.87,6.84-2.3,6.62-4.93,13.16-7.87,19.52-1.46,3.16-4.86,3.97-7.59,2.49-2.87-1.56-4.08-4.1-2.9-7.18,2.34-6.1,4.74-12.19,7.54-18.08.83-1.74,3.05-2.82,3.94-3.59Z"/>
        <path class="cls-1" d="m364.34,107.9c-.86,1.94-1.14,3.38-1.98,4.32-2.39,2.64-4.88,5.23-7.6,7.54-2.52,2.14-5.28,1.88-7.57-.57-2.21-2.36-2.75-5.11-.44-7.62,2.57-2.8,5.27-5.59,8.33-7.8,1.24-.9,3.89-.85,5.38-.14,1.63.78,2.64,2.83,3.88,4.27Z"/>
        <path class="cls-1" d="m140.75,102.71c.67.33,2.07.7,3.03,1.56,2.58,2.3,5.14,4.67,7.41,7.27,2.2,2.52,1.87,5.31-.39,7.69-2.2,2.32-5.04,2.62-7.33.56-3.08-2.78-6.11-5.81-8.36-9.26-2.11-3.23,1.12-7.8,5.64-7.81Z"/>
        <path class="cls-1" d="m255.35,68.1c-.07.84-.14,1.95-.27,3.05-.49,4.07-2.79,6.36-6.35,6.35-3.52,0-5.5-2.26-5.76-6.7-.11-1.97-.18-3.96-.02-5.91.32-3.9,2.61-6,6.18-5.93,3.23.07,5.47,2.31,5.89,5.91.12.98.2,1.97.32,3.22Z"/>
        <path class="cls-1" d="m248.09,223.96c-1.66-.81-2.9-1.53-4.23-2.04-5.97-2.31-11.41-5.41-15.64-10.35-2.54-2.96-2.61-5.85-.23-8.27,2.57-2.61,5.44-2.57,8.47.11,9.74,8.59,21.43,10.28,31.9,4.63,5.62-3.03,9.29-7.67,11.4-13.63.41-1.17.78-2.35,1.2-3.51,1.3-3.54,4.41-5.71,7.24-5.07,3.21.73,5.51,4.3,4.68,8.17-2.74,12.76-9.98,22.17-22.32,26.67-5.82,2.12-9.77,5.04-13.11,10.46-5.33,8.62-14.04,12.6-24.26,12.71-3.95.04-6.36-2.11-6.66-5.53-.31-3.53,1.59-5.71,5.66-6.49,9.02-1.73,10.78-2.56,15.89-7.88Z"/>
        <path class="cls-1" d="m199.9,188.31c.2-13.93,11.72-26.5,25.61-27.77,1.79-.16,4.16-.3,5.35.67,1.72,1.4,3.56,3.81,3.56,5.8,0,1.71-2.26,3.72-3.95,5.03-1.15.89-3.07.76-4.63,1.14-7.15,1.73-11.75,6.02-13.27,13.36-.22,1.09-.41,2.19-.65,3.28-.91,4.13-3.3,6.04-6.95,5.55-3.23-.43-5.13-3.08-5.08-7.05Z"/>
      </g>
    </g>
  </g>
</svg>