<?xml version="1.0" encoding="UTF-8"?>
<svg id="Layer_2" data-name="Layer 2" xmlns="http://www.w3.org/2000/svg" viewBox="0 0 500 500">
  <defs>
    <style>
      .cls-1 {
        fill: #41007a;
      }

      .cls-2 {
        fill: #009fe5;
      }
    </style>
  </defs>
  <g id="Layer_1-2" data-name="Layer 1">
    <g>
      <path class="cls-2" d="m424.16,475.48l-174.16,24.52-174.16-24.52c-26.64-3.75-47.57-24.68-51.32-51.32L0,250,24.52,75.84c3.75-26.64,24.68-47.57,51.32-51.32L250,0l174.16,24.52c26.64,3.75,47.57,24.68,51.32,51.32l24.52,174.16-24.52,174.16c-3.75,26.64-24.68,47.57-51.32,51.32Z"/>
      <g>
        <path class="cls-1" d="m99.08,436c.39-.29.79-.59.81-.61-3.48-1.85-7.39-3.41-10.7-5.81-4.96-3.61-7.49-8.94-7.99-15.06-.43-5.22-.69-10.48-.7-15.72-.07-26.37-.05-52.75,0-79.12,0-3.74.31-7.49.53-11.23.19-3.13,2.14-4.83,4.99-5.1,2.99-.28,5.02,1.5,5.61,4.38.52,2.54.7,5.2.71,7.8.04,28,.02,56,.01,83.99,0,.75,0,1.49,0,3.12,40.17-22.26,79.87-44.26,118.99-65.94-39.44-40.04-79-80.2-118.8-120.61-.06,1.32-.16,2.61-.16,3.9-.01,20,.01,40-.04,60,0,1.97-.2,4.01-.71,5.9-.7,2.6-2.74,3.79-5.36,3.75-2.71-.04-4.54-1.55-4.97-4.18-.5-3.07-.78-6.21-.8-9.32-.07-17,0-34-.05-51-.03-10.26,2.98-18.98,11.12-25.82,5.61-4.71,10.55-10.21,15.85-15.29,2.01-1.92,2.9-4,2.87-6.91-.15-15.25-.08-30.5-.07-45.75.02-14.05,10-24.5,23.99-24.66,16-.18,32,.09,47.99-.08,1.95-.02,4.34-1.05,5.76-2.42,15.17-14.74,30.24-29.61,45.22-44.54,4.56-4.54,10.25-6.3,16.19-7.69h2.98c9.63,1.97,16.25,8.51,22.86,15.16,11.68,11.74,23.59,23.24,35.17,35.08,3.23,3.3,6.56,4.63,11.13,4.55,14.01-.26,28.03-.16,42.04-.12,16.85.05,26.47,9.82,26.48,26.8,0,3.37.11,6.75-.04,10.12-.16,3.65-2.3,5.85-5.42,5.93-3.34.09-5.22-1.7-5.45-5.69-.24-4.24-.06-8.5-.22-12.74-.32-8.52-5.05-13.08-13.42-13.08-76.27,0-152.55,0-228.82,0-10.47,0-15.37,4.61-15.41,15.22-.1,30.75-.03,61.49.13,92.24,0,1.61,1.08,3.57,2.26,4.76,24.38,24.74,48.86,49.39,73.31,74.07,7.54,7.61,15.06,15.23,22.6,22.83,1.04,1.05,2.17,2.02,3.26,3.02,4.72-2.6,9.29-5.07,13.82-7.64,9.06-5.14,18.07-5.42,27.15-.03,3.73,2.22,7.65,4.12,11.33,6.42,1.72,1.07,2.9.95,4.21-.4,1.38-1.43,2.81-2.82,4.22-4.24,30.78-31.03,61.53-62.08,92.37-93.04,2.31-2.32,3.17-4.67,3.15-7.91-.1-16.87.01-33.75.07-50.62,0-1.5.08-3,.26-4.48.39-3.13,2.07-5.2,5.31-5.13,3.23.07,4.92,2.32,5.21,5.34.28,2.97-.2,6.04.23,8.98.32,2.16,1.06,4.68,2.49,6.19,5.5,5.75,11.27,11.27,17.12,16.67,6.19,5.71,9.64,12.55,9.6,21.09-.02,5.25.14,10.5.15,15.75.02,55.87.05,111.74,0,167.61,0,4.11.11,8.37-.87,12.29-2.22,8.83-7.8,14.85-16.63,17.55-1.29.39-2.52.97-3.78,1.46h-64.74c-.63-.77-1.27-1.52-1.88-2.31-3.05-3.98-1.76-7.54,3.15-8.4,2.06-.36,4.19-.42,6.29-.42,17.49-.03,34.97-.03,52.46-.01,5.07,0,9.58-1.16,12.65-5.68,2.4-3.55,2.38-4.17-1.39-6.28-18.2-10.15-36.43-20.25-54.66-30.35-30.06-16.65-60.19-33.18-90.15-50-6.79-3.81-12.86-3.99-19.53.03-9.56,5.76-19.34,11.17-29.09,16.6-24.6,13.7-49.23,27.35-73.86,40.99-13.99,7.75-27.98,15.49-42.03,23.12-3.04,1.65-3.07,3.35-1.18,5.9,3.31,4.44,7.83,5.71,13.06,5.7,66.22-.03,132.45-.02,198.67,0,1.61,0,3.24.04,4.81.31,5.18.89,6.58,4.16,3.76,8.51-.46.72-.78,1.53-1.17,2.3H99.08Zm308.82-219.94c-39.89,40.38-79.48,80.46-119.07,120.54,39.06,21.62,78.89,43.68,119.07,65.93v-186.47Zm-206.53-110.67c.25.28.49.56.74.84h97.15c-14.35-14.07-27.77-27.34-41.37-40.43-1.4-1.35-3.7-2.05-5.7-2.41-5.65-1.01-9.6,2.2-13.34,5.9-10.87,10.76-21.79,21.47-32.73,32.16-1.47,1.43-3.16,2.64-4.75,3.94Zm-91.35,92.6c-3.31,2.88-6.81,5.94-10.29,8.97,3.52,3.38,6.7,6.42,10.29,9.86v-18.84Zm280.21,17.93c.33.22.67.45,1,.67,2.6-2.8,5.27-5.55,7.76-8.44.48-.56.7-2.11.32-2.53-2.76-3.01-5.71-5.84-9.08-9.2v19.5Z"/>
        <path class="cls-1" d="m263.14,231.66c-2.2,1.31-4.89,3.38-7.91,4.63-8.8,3.66-18.27.89-25.46-7.09-9.76-10.84-10.85-30.19-2.59-42.23,7.9-11.51,23.1-14.9,33.33-7.77.28.2.7.2,1.24.34.43-1.3.79-2.6,1.27-3.85.88-2.31,2.45-3.79,5.05-3.57,2.68.22,4.34,1.84,4.87,4.41.32,1.57.25,3.23.25,4.85-.01,12.37-.05,24.75-.07,37.12,0,.5,0,1,.03,1.5.13,3.42.12,7.3,3.77,8.68,3.72,1.41,7.49-.06,10.17-2.94,1.9-2.04,3.56-4.56,4.54-7.17,11.61-30.7-12.32-54.89-36.37-57.28-20.74-2.06-42.59,10.55-48.48,33.84-6.79,26.84,10.49,52.74,37.72,56.56,1.84.26,3.72.43,5.49.94,2.8.81,4.51,2.72,4.15,5.81-.37,3.14-2.42,4.5-5.44,4.42-10.57-.27-20.22-3.58-28.95-9.44-19.53-13.1-29.18-37.36-23.95-59.78,5.38-23.03,24.28-40.09,47.87-43.21,30.08-3.98,58.12,17.52,61.89,47.77,1.35,10.84-1.07,21.19-6.62,30.57-5.34,9.02-15.72,13.69-24.4,10.51-4.08-1.5-7.46-4.92-11.38-7.62Zm-.97-27.06c-.53-2.12-.95-5.79-2.35-9.03-4.48-10.36-15.29-11.83-22.65-3.3-7.3,8.46-5.83,24.51,2.88,31.42,5.31,4.21,12.02,3.53,16.55-1.7,3.95-4.56,5.12-10.09,5.57-17.4Z"/>
      </g>
    </g>
  </g>
</svg>