<?xml version="1.0" encoding="UTF-8"?>
<svg id="Layer_2" data-name="Layer 2" xmlns="http://www.w3.org/2000/svg" viewBox="0 0 500 500">
  <defs>
    <style>
      .cls-1 {
        fill: #7f0031;
      }

      .cls-2 {
        fill: #e8e1da;
      }
    </style>
  </defs>
  <g id="Layer_1-2" data-name="Layer 1">
    <g>
      <path class="cls-2" d="m424.16,475.48l-174.16,24.52-174.16-24.52c-26.64-3.75-47.57-24.68-51.32-51.32L0,250,24.52,75.84c3.75-26.64,24.68-47.57,51.32-51.32L250,0l174.16,24.52c26.64,3.75,47.57,24.68,51.32,51.32l24.52,174.16-24.52,174.16c-3.75,26.64-24.68,47.57-51.32,51.32Z"/>
      <g>
        <path class="cls-1" d="m251.97,67.73c93.99.11,181.93,75.77,184.48,179.86,2.48,101.07-76.03,185.25-180,188.91-104.2,3.66-191.63-80.14-191.4-185.4.21-95.76,78.78-182.98,186.92-183.37Zm-25.27,243.74c-8.65-17.3-7.17-29.96,4.55-40.11,10.01-8.67,25.07-9.57,36.16-2.12,5.67,3.81,9.55,9,11.77,15.43,3.33,9.63,1.28,18.46-4.66,27.09,10.21.5,17.88,4.99,24.35,12.37,6.14-7.97,14.58-11.14,23.99-12.48-8.7-16.29-7.5-29.12,3.36-39.35,9.63-9.07,24.24-10.71,35.7-3.99,5.67,3.33,9.79,8.06,12.38,14.03,4.44,10.28,2.8,19.96-3.98,29.37,8.34.62,15.18,2.91,20.73,8.3,5.51,5.35,8,12.22,9.76,19.88,40.88-68.01,31.55-167.55-45.44-225.96-66.36-50.34-170.39-47.12-232.86,21.6-59.76,65.73-54.3,152.2-21.41,204.18,2.28-17.59,12.67-26.35,30.07-28-4.62-6.91-7.5-13.85-6.21-21.73,1.29-7.86,4.96-14.5,11.36-19.49,10.64-8.29,25.9-8.39,36.53-.24,5.53,4.24,9.16,9.76,10.96,16.44,2.42,8.96.25,17.09-5.37,25.05,10.35.46,18.03,5.13,24.33,12.17q7.38-7.08,23.94-12.44Zm156.02,52.23c3.64-2.35,6.35-4.99,6.25-9.27-.11-4.7.1-9.44-.38-14.1-.99-9.68-8.34-16.59-17.48-16.63-16.12-.07-32.24-.1-48.36.01-10.92.07-17.99,7.28-18,18.09-.02,16.37,0,32.74,0,49.1v3.95h-11.92c0-1.37,0-2.48,0-3.59-.03-16.6.14-33.2-.16-49.8-.18-9.99-7.76-17.68-17.08-17.75-16.37-.13-32.74-.14-49.11,0-10.67.09-17.71,7.38-17.72,17.98-.02,15,0,30.01,0,45.01,0,2.69,0,5.39,0,8.18h-11.91c0-1.45,0-2.67,0-3.89-.04-16.6.13-33.21-.19-49.8-.18-9.57-7.66-17.33-16.59-17.44-16.74-.21-33.49-.21-50.23.02-9.31.13-16.64,7.06-17.01,15.6-.23,5.32-.19,10.67-.02,15.99.12,3.8,2.27,6.54,6.14,9.15v-22.71h11.81c0,10.54.16,20.82-.09,31.09-.09,3.48,1.16,5.74,3.67,7.94,39.16,34.22,84.86,47.96,136.49,42.62,37.19-3.84,69.57-18.61,97.33-43.44,1.95-1.75,2.7-3.55,2.65-6.12-.14-7.93-.05-15.87-.05-23.81,0-2.8,0-5.59,0-8.37h11.97v21.98Zm-245.96-69.14c-.05,9.53,7.56,17.03,17.43,17.17,10.21.15,18.53-7.95,18.46-17.99-.06-9.78-7.81-17.65-17.46-17.73-10.97-.09-18.37,7.36-18.43,18.55Zm113.96-18.55c-10.67.05-17.96,7.62-17.96,18.65,0,9.67,7.85,17.16,17.9,17.08,10.03-.08,18.13-8.22,17.99-18.09-.14-9.97-7.98-17.69-17.93-17.64Zm96.15,0c-10.72,0-18.03,7.47-18.11,18.5-.07,9.69,7.71,17.23,17.75,17.23,10.04,0,18.16-8.04,18.14-17.94-.02-9.94-7.88-17.79-17.78-17.78Z"/>
        <path class="cls-1" d="m196.53,155.88c1.82-1.58,3.42-3.59,5.51-4.65,2.94-1.5,3.81-3.53,3.56-6.58-.21-2.62-1.29-4.28-3.75-5.44-5.24-2.47-5.98-4.3-4.2-9.74,2.57-7.9,6.68-14.91,12.61-20.82,4.04-4.02,4.86-3.99,10.15-1.77,2.08.87,4.7,1.29,6.9.91,3.55-.6,4.79-3.21,4.67-6.87-.16-4.81,1.55-6.65,6.24-7.83,8.53-2.14,17.06-2.08,25.59-.03,4.79,1.15,5.77,2.44,5.93,7.54.2,6.77,4.9,9.61,10.98,6.64,5.75-2.8,6.69-2.69,11.02,1.87,5.47,5.77,9.49,12.42,11.84,20.01,1.59,5.15.81,7.15-3.79,9.87-5.48,3.24-5.53,8.94-.12,12.18,5.11,3.06,5.6,4.28,3.65,10-2.58,7.6-6.46,14.48-12.03,20.35-3.75,3.94-5.21,4.02-10.23,1.87-1.99-.85-4.44-1.37-6.53-1.06-3.31.49-4.74,2.69-4.72,6.35.04,6.01-1.52,7.35-7.54,8.65-7.81,1.69-15.6,1.74-23.4-.05-6.09-1.4-7.14-2.65-7.17-8.86-.03-4.9-5.41-8.08-9.81-5.79-6.54,3.41-8.45,3.55-12.62-2.37-4.45-6.32-7.75-13.45-11.46-20.29-.5-.93-.42-2.17-.62-3.27-.22-.28-.45-.56-.67-.85Zm47.26-52.47c-2.29,10.96-12.95,18.93-22.34,16.51-4.47-1.16-6.86-.09-8.44,3.9-.27.68-.7,1.32-1.15,1.91-2.22,2.95-2.15,5.26,1.57,6.99,3.3,1.53,4.5,4.02,3.87,7.82-.54,3.26-.35,6.69-.09,10.02.24,3.11-.7,5.54-3.49,6.74-3.95,1.7-4.11,3.98-1.76,7.07.52.69.99,1.44,1.34,2.23,1.67,3.73,3.97,4.87,8.27,3.56,6.56-2,18.47,4.6,20.77,10.83q2.12,5.76,8.23,5.76c1.25,0,2.52-.13,3.75.03,2.63.34,3.62-.73,4.24-3.31,1.87-7.67,14.1-15.69,21.2-13.4,4.76,1.54,6.94-.02,8.76-3.82.53-1.12,1.16-2.2,1.83-3.24,1.54-2.39,1.17-4.04-1.64-5.14-3.86-1.5-5.48-4.21-4.68-8.47.49-2.65.77-5.53.27-8.14-.91-4.79,1.18-7.47,5.14-9.48.82-.42,1.98-1.9,1.79-2.27-1.79-3.37-3.76-6.67-5.93-9.81-.34-.5-2.03-.36-3-.11-10.13,2.62-21.46-4.01-24.08-14.03-.22-.86-1.48-2.01-2.3-2.05-3.97-.22-7.96-.1-12.13-.1Z"/>
        <path class="cls-1" d="m232.75,240.32c-.03,16.44-13.71,29.81-30.48,29.77-16.21-.04-29.55-13.75-29.52-30.35.03-15.77,13.78-29.2,29.87-29.19,16.47.02,30.16,13.53,30.13,29.76Zm-47.97-.05c-.07,10.05,7.75,17.78,18.07,17.86,9.63.08,17.73-7.84,17.8-17.4.08-10.38-7.55-18.35-17.55-18.35-10.74,0-18.24,7.32-18.32,17.89Z"/>
        <path class="cls-1" d="m328.75,240.38c-.04,16.43-13.75,29.77-30.54,29.72-16.19-.05-29.5-13.79-29.46-30.4.04-15.76,13.82-29.16,29.92-29.13,16.46.04,30.11,13.57,30.07,29.82Zm-47.97.12c.03,10.01,7.99,17.69,18.3,17.64,9.62-.04,17.65-8.1,17.57-17.63-.08-10.42-7.72-18.2-17.78-18.12-10.72.09-18.12,7.5-18.09,18.11Z"/>
        <path class="cls-1" d="m190.48,394.95h-11.53v-53.11h11.53v53.11Z"/>
        <path class="cls-1" d="m274.94,341.7h11.55v53.18h-11.55v-53.18Z"/>
        <path class="cls-1" d="m215.05,341.67h11.47v53.26h-11.47v-53.26Z"/>
        <path class="cls-1" d="m311.05,341.67h11.47v53.26h-11.47v-53.26Z"/>
        <path class="cls-1" d="m250.7,166.82c-12.08.05-21.89-9.7-21.86-21.74.02-12.02,9.51-21.63,21.46-21.74,12.43-.11,22.19,9.43,22.24,21.74.05,12.06-9.63,21.69-21.84,21.74Zm-.06-11.85c5.82-.05,10.09-4.36,10.11-10.21.02-5.43-4.45-9.84-10.06-9.93-5.25-.08-10.27,5.03-10.19,10.37.08,5.56,4.5,9.82,10.13,9.77Z"/>
      </g>
    </g>
  </g>
</svg>