<?xml version="1.0" encoding="UTF-8"?>
<svg id="Layer_2" data-name="Layer 2" xmlns="http://www.w3.org/2000/svg" viewBox="0 0 500 500">
  <defs>
    <style>
      .cls-1 {
        fill: #dce2e5;
      }

      .cls-2 {
        fill: #00557a;
      }
    </style>
  </defs>
  <g id="Layer_1-2" data-name="Layer 1">
    <g>
      <path class="cls-2" d="m424.16,475.48l-174.16,24.52-174.16-24.52c-26.64-3.75-47.57-24.68-51.32-51.32L0,250,24.52,75.84c3.75-26.64,24.68-47.57,51.32-51.32L250,0l174.16,24.52c26.64,3.75,47.57,24.68,51.32,51.32l24.52,174.16-24.52,174.16c-3.75,26.64-24.68,47.57-51.32,51.32Z"/>
      <g>
        <path class="cls-1" d="m58.99,133.5c.48-1.13,1.12-2.22,1.43-3.4,3.64-13.93,13.9-22.06,28.07-22.06,91.16,0,182.32,0,273.48.03,1.84,0,4.01-.26,5.44.6,1.68,1.01,3.6,3.03,3.76,4.76.14,1.47-1.78,3.65-3.34,4.62-1.42.88-3.58.74-5.41.74-84.34.07-168.67.1-253.01.15-7.68,0-15.38-.15-23.04.31-8.58.52-15.34,6.45-15.84,15.09-.7,12.3-.18,24.68-.18,37.38,1.25.06,2.43.17,3.62.17,114.6.02,229.2.03,343.8.05,2.73,0,5.48-.15,8.18.16,2.61.3,3.25-.75,3.23-3.12-.09-10.5.08-21-.14-31.49-.24-11.57-7.2-18.5-18.71-18.82-6.19-.18-12.4.13-18.58-.24-1.61-.1-3.76-1.62-4.49-3.08-.65-1.31-.17-3.8.75-5.09.84-1.18,2.93-1.99,4.49-2.04,7.43-.2,14.92-.59,22.31.04,14.94,1.27,25.16,14.08,25.19,30.97.05,32.62.01,65.25.01,97.87,0,44.25.02,88.5,0,132.75,0,15.88-8.89,27.24-23.54,30.24-1.2.25-2.45.38-3.68.38-16.12.03-32.25.03-48.37,0-1.22,0-2.88.14-3.56-.56-1.42-1.47-2.97-3.34-3.28-5.24-.39-2.44,1.48-4.24,3.98-4.58,2.94-.4,5.93-.6,8.9-.62,12.65-.08,25.32-.51,37.95.07,12.14.55,20.98-7.28,20.86-20.93-.38-42.99-.15-85.99-.15-128.99,0-17.62-.03-35.25.11-52.87.02-3.07-.77-3.93-3.94-3.93-110.76.1-221.51.09-332.27.1-6.7,0-13.4.1-20.09,0-2.27-.04-2.96.66-2.93,3,.15,11.87.12,23.75.13,35.62,0,1.5.08,3.03-.21,4.48-.83,4.13-4.87,5.65-8.25,3.22-.9-.65-1.77-1.33-2.65-2,0-31.25,0-62.5,0-93.75Z"/>
        <path class="cls-1" d="m58.99,248.25c.83-.48,1.71-.88,2.46-1.45,3.49-2.68,7.15-1.45,8.12,2.9.4,1.8.43,3.72.43,5.58.03,36.74.04,73.47.06,110.21,0,2.25.04,4.5.14,6.75.45,9.68,7.23,16.71,16.81,17.04,7.93.27,15.87.12,23.8.13,22.81.02,45.63.03,68.44.05,2.09,0,4.17,0,6.77,0-.92-2.7-1.63-4.9-2.42-7.07-6.71-18.5-13.44-36.99-20.15-55.48-.38-1.05-.7-2.13-1.04-3.2-1.15-3.64-.68-6.91,2.19-9.62,2.84-2.68,6.23-3.08,9.71-1.86,5.02,1.76,9.93,3.85,14.92,5.71,26.09,9.77,52.11,19.75,78.33,29.17,11.86,4.26,13.02,11.3,3.91,19.55-5.24,4.74-9.99,10.03-15.08,15.19,3.68,4.73,7.28,7.95,14.1,7.76,21.19-.56,42.4-.2,63.6-.15,4.51.01,7.04,2.01,7.11,5.38.07,3.54-2.22,5.65-6.25,5.66-18.35.01-36.7,0-55.05,0h-4.54c.61,1.32.94,2.19,1.39,3,1.9,3.44,1.79,6.91-.77,9.76-4.07,4.52-8.28,8.97-12.84,12.97-4.38,3.84-7.93,3.64-12.24-.38-5.55-5.17-10.85-10.62-16.17-16.03-.94-.95-1.47-2.32-2.46-3.93-5.69,5.79-10.36,10.57-15.07,15.32-1.66,1.68-3.29,3.42-5.13,4.88-5.08,4.05-10.09,3.07-12.78-2.83-2.83-6.22-5.36-12.61-7.55-19.09-.99-2.94-2.34-3.74-5.28-3.73-32.61.1-65.22.06-97.83.06-13.67,0-24.55-8.4-28.17-21.63-.23-.86-.96-1.58-1.45-2.37,0-42.75,0-85.5,0-128.25Zm148.69,167.14c1.44-1.39,2.51-2.38,3.54-3.42,4.91-4.94,9.76-9.95,14.73-14.83,4.59-4.51,6.58-4.48,11.24.06,4.54,4.43,9.05,8.89,13.51,13.4,6.66,6.75,6.54,6.67,13.41.25,2.35-2.2,2.24-3.56.04-5.71-5.97-5.82-11.81-11.77-17.57-17.79-4.26-4.45-4.19-6.74.06-11.06,5.32-5.42,10.7-10.77,16.03-16.17.64-.65,1.16-1.42,2.06-2.54-30.42-11.46-60.4-22.75-91.3-34.39,11.66,31.4,22.84,61.47,34.25,92.21Z"/>
        <path class="cls-1" d="m332.43,284.37c.78-2,1.33-3.32,1.8-4.67,3.54-10.11,7.06-20.22,10.6-30.33.45-1.29.76-2.81,1.63-3.73,1.45-1.52,3.39-3.75,4.97-3.63,1.81.14,4.29,2.17,5.02,3.98,3.11,7.73,5.69,15.68,8.43,23.57,1.56,4.5,3.07,9.02,5.51,13.53.54-1.71,1.03-3.43,1.63-5.12,3.53-9.98,7.08-19.95,10.65-29.92.38-1.05.84-2.08,1.38-3.06,1.42-2.59,3.73-3.38,6.31-2.33,2.51,1.02,4,3.03,3.13,5.97-1.31,4.42-2.6,8.85-4.12,13.2-4.62,13.16-9.37,26.28-14,39.44-.97,2.76-2.23,5.21-5.48,5.27-3.48.07-4.75-2.53-5.73-5.41-3.77-11.08-7.6-22.15-11.42-33.21-.31-.91-.76-1.77-1.46-3.37-4.55,12.39-8.85,24.1-13.15,35.79-.39,1.05-.75,2.13-1.28,3.1-2.28,4.18-6.71,4.28-9.09.22-.44-.75-.76-1.57-1.04-2.39-5.78-16.85-11.63-33.67-17.21-50.58-.65-1.97-.52-4.97.56-6.59,2.1-3.15,6.77-2.32,8.49,1.35,1.58,3.36,2.71,6.95,3.9,10.49,2.83,8.38,5.56,16.79,8.37,25.18.3.9.83,1.71,1.6,3.26Z"/>
        <path class="cls-1" d="m249.75,263.07c-4.35,12.33-8.27,23.48-12.22,34.61-.67,1.88-1.28,3.8-2.18,5.56-2.23,4.38-6.81,4.58-9.38.42-.78-1.25-1.29-2.7-1.76-4.11-5.5-16.42-11-32.84-16.44-49.27-1.34-4.05-.34-6.59,2.78-7.71,3.15-1.13,5.64.09,7.07,4.14,3.81,10.81,7.38,21.69,11.07,32.54.54,1.6,1.23,3.14,2.23,5.64,4.4-12.55,8.46-24.1,12.5-35.65,1.16-3.32,2.11-7.21,6.4-7.29,4.48-.08,5.13,4.09,6.24,7.31,3.98,11.49,7.85,23.02,12.04,35.36.92-2.29,1.65-3.92,2.23-5.61,3.43-10.02,6.81-20.05,10.24-30.07.52-1.53.88-3.57,2-4.32,1.77-1.18,4.22-2.19,6.21-1.93,2.28.29,3.58,2.56,3.19,5.18-.18,1.23-.46,2.46-.86,3.63-5.64,16.51-11.33,33-16.96,49.51-1.08,3.17-2.56,5.89-6.36,5.7-3.62-.18-4.75-3.05-5.71-6.02-3.97-12.19-7.98-24.37-12.33-37.61Z"/>
        <path class="cls-1" d="m165.31,284.02c4.17-11.93,8.08-23.16,12.04-34.38.62-1.75,1.04-3.95,2.32-5,1.48-1.22,3.9-2.11,5.74-1.86,2.32.31,3.65,2.46,3.28,5.09-.16,1.1-.44,2.2-.8,3.26-5.53,16.28-11.09,32.55-16.65,48.82-.32.94-.52,2.09-1.18,2.71-1.61,1.51-3.45,3.81-5.22,3.82-1.74.01-4.36-2.03-5.1-3.8-2.44-5.84-4.23-11.97-6.21-18-1.83-5.56-3.56-11.15-5.41-16.71-.36-1.09-1.06-2.06-2.02-3.87-3.7,10.49-7.09,20.07-10.47,29.65-1,2.82-1.97,5.64-3.01,8.45-.93,2.52-2.52,4.31-5.41,4.38-2.9.07-4.2-1.99-5.02-4.27-3.76-10.43-7.5-20.86-11.06-31.36-2.48-7.31-4.67-14.72-6.98-22.08-.91-2.89.18-4.85,2.87-6.01,2.95-1.27,5.05-.17,6.5,2.49.53.98.92,2.04,1.28,3.1,2.24,6.47,4.44,12.96,6.69,19.44,1.83,5.28,3.71,10.55,5.81,16.54.68-1.41,1.14-2.17,1.42-2.98,3.76-10.69,7.49-21.39,11.24-32.08.41-1.18.89-2.33,1.31-3.5.94-2.64,2.95-4.61,5.52-3.99,1.9.46,4.18,2.42,4.89,4.27,2.88,7.43,5.21,15.07,7.75,22.62,1.23,3.66,2.45,7.33,3.76,10.95.48,1.32,1.23,2.54,2.09,4.3Z"/>
        <path class="cls-1" d="m148.3,145.41c.04,5.68-4.36,10.26-9.99,10.38-5.68.12-10.21-4.3-10.25-10.02-.05-6.11,4.2-10.6,10.06-10.64,5.36-.03,10.14,4.79,10.18,10.28Z"/>
        <path class="cls-1" d="m169.75,135.15c5.31-.14,10.15,4.58,10.38,10.12.23,5.58-4.55,10.51-10.24,10.55-5.59.04-9.84-4.32-10.02-10.27-.17-5.64,4.21-10.25,9.87-10.4Z"/>
        <path class="cls-1" d="m96.26,145.31c-.02-5.51,4.49-10.09,9.9-10.03,5.45.06,10.1,4.8,10.15,10.36.05,5.35-4.88,10.15-10.35,10.08-5.05-.07-9.67-5.02-9.7-10.41Z"/>
      </g>
    </g>
  </g>
</svg>