<?xml version="1.0" encoding="UTF-8"?>
<svg id="Layer_2" data-name="Layer 2" xmlns="http://www.w3.org/2000/svg" viewBox="0 0 500 500">
  <defs>
    <style>
      .cls-1 {
        fill: #260047;
      }

      .cls-2 {
        fill: #7c00e8;
      }
    </style>
  </defs>
  <g id="Layer_1-2" data-name="Layer 1">
    <g>
      <path class="cls-2" d="m424.16,475.48l-174.16,24.52-174.16-24.52c-26.64-3.75-47.57-24.68-51.32-51.32L0,250,24.52,75.84c3.75-26.64,24.68-47.57,51.32-51.32L250,0l174.16,24.52c26.64,3.75,47.57,24.68,51.32,51.32l24.52,174.16-24.52,174.16c-3.75,26.64-24.68,47.57-51.32,51.32Z"/>
      <g>
        <path class="cls-1" d="m252.48,74.08c4.42,2.56,4.97,6.62,4.94,11.29-.17,24.66-.18,49.33-.17,74,.03,83.46.09,166.92.13,250.38,0,1.35.01,2.72-.18,4.04-.47,3.19-2.08,5.47-5.48,5.96-1.66.24-3.35.36-5.03.36-52.26.02-104.53.02-156.79.01-1.01,0-2.03.03-3.04-.03-5.28-.33-7.52-2.49-7.98-7.71-.11-1.23-.08-2.48-.08-3.71,0-92.47,0-184.95.02-277.42,0-1.79.16-3.6.46-5.36.51-2.99,2.38-4.81,5.37-5.28,1.99-.31,4.02-.54,6.03-.55,25.34-.04,50.69-.02,76.03-.02,1.21,0,2.43,0,4.01,0,0-4.97,0-9.67,0-14.36,0-6.87.14-13.75-.05-20.61-.13-4.74.9-8.68,5.45-10.99h76.37Zm-69.95,74.88c0,1.42,0,2.5,0,3.59-.01,65.19-.02,130.38-.09,195.58,0,2.37.62,3.05,3.04,3.03,18.91-.16,37.83-.25,56.75-.14,3.15.02,4.02-.87,4-3.95-.11-15.76-.02-31.52-.02-47.29,0-48.41-.02-96.82-.02-145.24,0-5.53.03-5.53-5.55-5.54-18.13-.02-36.26-.03-54.38-.05-1.1,0-2.2,0-3.72,0Zm-92.31,184.42h80.26v-172.55h-80.26v172.55Zm80.4,40.98h-80.22v34.11h80.22v-34.11Zm12.39,10.86c-.23.79-.46,1.21-.46,1.63-.05,6.53.01,13.05-.13,19.58-.05,2.28,1.21,2.22,2.79,2.21,19.25-.02,38.5-.05,57.75.05,2.51.01,3.34-.65,3.27-3.21-.17-5.85-.14-11.71,0-17.56.05-2-.59-2.51-2.49-2.49-4.73.04-9.45-.2-14.18-.21-15.51-.03-31.02-.01-46.54-.01Zm-.32-300.01v23.11c.57.18.88.36,1.19.36,20.05.04,40.09.04,60.14.12,1.91,0,2.24-.81,2.22-2.45-.08-6.08-.18-12.16-.02-18.24.06-2.29-.84-2.57-2.75-2.58-16.21-.06-32.43-.21-48.64-.32-4.02-.03-8.03,0-12.13,0Zm-12.09,259.49c-26.14,0-51.92.01-77.69-.02-1.98,0-2.86.63-2.8,2.73.12,4.16.15,8.34,0,12.5-.07,2.13.67,2.67,2.72,2.67,22.41-.09,44.82-.1,67.24-.13,3.46,0,6.91,0,10.52,0v-17.73Zm0-212.87c-1.28,0-2.28,0-3.28,0-24.76-.06-49.51-.11-74.27-.23-2.11-.01-3.07.45-2.96,2.79.18,3.93.21,7.88.02,11.81-.12,2.49.87,2.98,3.14,2.97,23.97-.07,47.94-.05,71.91-.05,1.77,0,3.53,0,5.44,0v-17.29Zm11.77-11.58c0,5.43-.08,10.47.09,15.51.02.67,1.28,1.87,1.97,1.87,19.79.06,39.59-.01,59.38-.03,1.67,0,2.41-.5,2.35-2.34-.12-3.71-.31-7.45.1-11.12.38-3.42-.8-4.17-4-4.15-18.89.12-37.79.06-56.68.07-.87,0-1.75.1-3.2.19Zm.26,242.27c0,2.77.02,5.1,0,7.43q-.04,4.22,4.33,4.23c16.88,0,33.76,0,50.63,0,8.57,0,8.47,0,8.7-8.5.07-2.61-.78-3.24-3.26-3.21-10.8.12-21.6.05-32.41.05-9.11,0-18.21,0-27.99,0Z"/>
        <path class="cls-1" d="m258.17,149.73c.03-3.36,1.74-5.25,4.86-6.1,10.08-2.75,20.15-5.54,30.22-8.29,15.82-4.32,31.65-8.62,47.48-12.91,2.17-.59,4.35-1.14,6.56-1.54,4.76-.87,7.07.4,8.41,5.03,1.44,4.96,2.49,10.04,3.79,15.04,9.92,38.05,19.87,76.09,29.78,114.14,10.82,41.53,21.61,83.07,32.41,124.61.85,3.26,1.63,6.54,2.39,9.82.74,3.16-.91,5.95-4.69,7.07-7.54,2.23-15.14,4.25-22.73,6.29-19.74,5.32-39.47,10.69-59.26,15.85-7.26,1.89-9.31.4-11.16-6.69-10.14-38.93-20.29-77.85-30.45-116.77-12.11-46.42-24.24-92.84-36.33-139.27-.54-2.06-.87-4.18-1.29-6.27Zm136.15,168.45c-.56-1.97-.95-3.25-1.29-4.55-10.39-40.01-20.79-80.03-31.15-120.05-.65-2.52-1.14-4.19-4.6-3.24-22.54,6.17-45.13,12.14-67.72,18.11-5.6,1.48-4.84.8-3.53,5.85,10.49,40.45,21.05,80.88,31.55,121.33.56,2.15,1.28,2.9,3.73,2.23,20.05-5.46,40.15-10.75,60.22-16.11,4.2-1.12,8.37-2.33,12.78-3.57Zm-117.97-140.65c6.45-1.69,12.43-3.24,18.39-4.82,18.14-4.83,36.25-9.72,54.41-14.44,2.71-.7,3.09-1.85,2.41-4.29-1.92-6.91-3.65-13.87-5.59-21.29-25.18,6.71-50.19,13.38-75.8,20.21,2.06,8.25,4.07,16.26,6.16,24.64Zm135.57,209.89c-.05-.97.02-1.65-.15-2.27-1.66-6.41-3.5-12.79-4.98-19.24-.58-2.52-1.56-3.04-3.93-2.4-23.43,6.29-46.87,12.53-70.32,18.71-2.01.53-2.48,1.26-1.88,3.31,1.71,5.82,3.19,11.7,4.72,17.57,1.14,4.37,1.12,4.4,5.27,3.31,16.07-4.23,32.13-8.47,48.19-12.74,7.68-2.04,15.35-4.15,23.08-6.25Zm-84.38-15.36c4.52-1.21,8.53-2.3,12.54-3.36,19.78-5.18,39.55-10.4,59.36-15.49,2.97-.76,4.01-1.76,2.91-5.01-1.8-5.31-3.25-10.76-4.41-16.25-.54-2.56-1.56-2.83-3.69-2.24-4.87,1.35-9.77,2.58-14.66,3.89-18.23,4.88-36.46,9.78-54.7,14.66-1.64.44-3.52.57-2.84,3.11,1.82,6.82,3.62,13.64,5.49,20.68Zm-45.29-173.45c1.27-.22,2.62-.34,3.91-.68,21.74-5.72,43.48-11.39,65.18-17.24,7.75-2.09,6.83-.29,4.97-8.52-.95-4.2-1.06-4.16-5.2-3.05-20.64,5.5-41.28,10.97-61.91,16.46-3.13.83-7.84.88-8.94,2.88-1.23,2.25.8,6.29,1.42,9.55.02.09.15.16.56.61Z"/>
        <path class="cls-1" d="m130.96,177.93c6.76,0,13.52-.11,20.27.03,6.17.12,8.44,2.27,8.5,8.39.13,13.85.11,27.7-.02,41.55-.05,4.98-2.64,7.53-7.6,7.56-13.62.08-27.25.13-40.88-.1-7.7-.13-9.24-1.91-9.27-9.55-.05-12.61-.04-25.22.06-37.84.06-8.04,1.7-9.73,9.69-9.94,6.41-.17,12.84-.03,19.25-.03,0-.02,0-.05,0-.07Zm-16.93,11.55c-.28.47-.49.66-.5.86-.07,10.58-.17,21.17-.05,31.75,0,.69,1.69,1.95,2.61,1.96,9.8.12,19.59,0,29.39.06,2.01.01,2.48-.79,2.47-2.61-.07-9.8-.1-19.6-.03-29.39.01-2.06-.64-2.77-2.72-2.7-4.16.15-8.33.07-12.5.07-6.28,0-12.56,0-18.67,0Z"/>
      </g>
    </g>
  </g>
</svg>